<svg width="36" height="36" viewBox="0 0 36 36" fill="none" xmlns="http://www.w3.org/2000/svg">
<circle cx="18" cy="18" r="18" fill="white"/>
<path d="M18 8.16203C21.2021 8.16203 21.5817 8.17258 22.8471 8.23234C24.0176 8.28507 24.6538 8.48194 25.0756 8.64716C25.6344 8.86512 26.0352 9.12526 26.4534 9.5436C26.8717 9.96194 27.1318 10.3627 27.3497 10.9217C27.5149 11.3435 27.7083 11.9798 27.7645 13.1505C27.8207 14.416 27.8348 14.7957 27.8348 17.9983C27.8348 21.2008 27.8243 21.5805 27.7645 22.8461C27.7118 24.0167 27.5149 24.653 27.3497 25.0749C27.1318 25.6338 26.8717 26.0346 26.4534 26.4529C26.0352 26.8712 25.6344 27.1314 25.0756 27.3493C24.6538 27.5146 24.0176 27.7079 22.8471 27.7642C21.5817 27.8204 21.2021 27.8345 18 27.8345C14.7979 27.8345 14.4183 27.8239 13.1529 27.7642C11.9824 27.7114 11.3462 27.5146 10.9244 27.3493C10.3656 27.1314 9.96486 26.8712 9.54658 26.4529C9.1283 26.0346 8.8682 25.6338 8.65027 25.0749C8.48507 24.653 8.29175 24.0167 8.23551 22.8461C8.17927 21.5805 8.16521 21.2008 8.16521 17.9983C8.16521 14.7957 8.17575 14.416 8.23551 13.1505C8.28823 11.9798 8.48507 11.3435 8.65027 10.9217C8.8682 10.3627 9.1283 9.96194 9.54658 9.5436C9.96486 9.12526 10.3656 8.86512 10.9244 8.64716C11.3462 8.48194 11.9824 8.28859 13.1529 8.23234C14.4183 8.17258 14.7979 8.16203 18 8.16203ZM18 6C14.7417 6 14.3339 6.01406 13.0545 6.07382C11.7786 6.13359 10.9069 6.33397 10.1406 6.63278C9.35326 6.93511 8.6819 7.34642 8.01758 8.01438C7.34974 8.68232 6.942 9.35025 6.63269 10.1412C6.33743 10.9041 6.13357 11.7759 6.07381 13.0555C6.01406 14.3352 6 14.7429 6 18.0018C6 21.2606 6.01406 21.6684 6.07381 22.948C6.13357 24.2241 6.33392 25.0959 6.63269 25.8623C6.93849 26.6463 7.34974 27.3177 8.01758 27.9821C8.68542 28.6501 9.35326 29.0579 10.1441 29.3672C10.9069 29.6625 11.7786 29.8664 13.058 29.9262C14.3374 29.9859 14.7452 30 18.0035 30C21.2619 30 21.6696 29.9859 22.949 29.9262C24.225 29.8664 25.0967 29.666 25.8629 29.3672C26.6468 29.0614 27.3181 28.6501 27.9824 27.9821C28.6503 27.3142 29.058 26.6463 29.3673 25.8553C29.6626 25.0924 29.8664 24.2206 29.9262 22.941C29.9859 21.6614 30 21.2536 30 17.9947C30 14.7359 29.9859 14.3281 29.9262 13.0485C29.8664 11.7724 29.6661 10.9006 29.3673 10.1342C29.0615 9.35025 28.6503 8.6788 27.9824 8.01438C27.3146 7.34642 26.6467 6.93862 25.8559 6.62927C25.0931 6.33397 24.2214 6.13007 22.942 6.07031C21.6661 6.01406 21.2584 6 18 6Z" fill="#F26522"/>
<path d="M18.0001 11.8357C14.5976 11.8357 11.8384 14.5953 11.8384 17.9983C11.8384 21.4012 14.5976 24.1609 18.0001 24.1609C21.4025 24.1609 24.1617 21.4012 24.1617 17.9983C24.1617 14.5953 21.4025 11.8357 18.0001 11.8357ZM18.0001 21.9989C15.7927 21.9989 14.0001 20.2095 14.0001 17.9983C14.0001 15.7871 15.7927 13.9977 18.0001 13.9977C20.2074 13.9977 22.0001 15.7871 22.0001 17.9983C22.0001 20.2095 20.2074 21.9989 18.0001 21.9989Z" fill="#F26522"/>
<path d="M24.404 13.0343C25.1999 13.0343 25.8451 12.389 25.8451 11.5929C25.8451 10.7969 25.1999 10.1516 24.404 10.1516C23.6081 10.1516 22.9629 10.7969 22.9629 11.5929C22.9629 12.389 23.6081 13.0343 24.404 13.0343Z" fill="#F26522"/>
</svg>
