<svg width="36" height="36" viewBox="0 0 36 36" fill="none" xmlns="http://www.w3.org/2000/svg">
<mask id="mask0_262_50" style="mask-type:luminance" maskUnits="userSpaceOnUse" x="0" y="0" width="36" height="36">
<path d="M36 0H0V36H36V0Z" fill="white"/>
</mask>
<g mask="url(#mask0_262_50)">
<path d="M18 36C8.0604 36 0 27.9396 0 18C0 8.0604 8.0604 0 18 0C27.9396 0 36 8.0604 36 18C36 27.9396 27.9396 36 18 36Z" fill="white"/>
<path fill-rule="evenodd" clip-rule="evenodd" d="M26.4203 9.6193C24.1883 7.3837 21.2147 6.15253 18.0503 6.14893C11.5307 6.14893 6.22074 11.4553 6.22074 17.9785C6.22074 20.0629 6.76434 22.1005 7.80114 23.8933L6.12354 30.0241L12.3947 28.3789C14.1227 29.3221 16.0667 29.8189 18.0467 29.8189H18.0503C24.5699 29.8189 29.8763 24.5125 29.8799 17.9893C29.8835 14.8285 28.6559 11.8549 26.4203 9.6193ZM18.0539 27.8209H18.0503C16.2863 27.8209 14.5547 27.3457 13.0463 26.4493L12.6863 26.2369L8.96393 27.2125L9.95753 23.5837L9.72354 23.2129C8.74074 21.6469 8.21873 19.8397 8.21873 17.9785C8.22233 12.5569 12.6323 8.1469 18.0575 8.1469C20.6855 8.1469 23.1515 9.1729 25.0091 11.0305C26.8667 12.8881 27.8891 15.3613 27.8855 17.9857C27.8855 23.4109 23.4719 27.8209 18.0539 27.8209ZM23.4467 20.4553C23.1515 20.3077 21.6971 19.5913 21.4271 19.4941C21.1571 19.3969 20.9591 19.3465 20.7611 19.6417C20.5631 19.9369 19.9979 20.6029 19.8251 20.8009C19.6523 20.9989 19.4795 21.0241 19.1843 20.8765C18.8891 20.7289 17.9351 20.4157 16.8083 19.4077C15.9299 18.6229 15.3359 17.6545 15.1631 17.3593C14.9903 17.0641 15.1451 16.9021 15.2927 16.7545C15.4259 16.6213 15.5879 16.4089 15.7355 16.2361C15.8831 16.0633 15.9335 15.9409 16.0307 15.7429C16.1279 15.5449 16.0811 15.3721 16.0055 15.2245C15.9299 15.0769 15.3395 13.6225 15.0947 13.0285C14.8535 12.4525 14.6123 12.5317 14.4287 12.5209C14.2559 12.5137 14.0579 12.5101 13.8635 12.5101C13.6655 12.5101 13.3451 12.5857 13.0751 12.8809C12.8051 13.1761 12.0419 13.8925 12.0419 15.3469C12.0419 16.8013 13.1003 18.2089 13.2479 18.4033C13.3955 18.6013 15.3323 21.5857 18.2987 22.8673C19.0043 23.1733 19.5551 23.3533 19.9835 23.4901C20.6927 23.7169 21.3371 23.6845 21.8447 23.6089C22.4135 23.5225 23.5943 22.8925 23.8391 22.2049C24.0839 21.5137 24.0839 20.9233 24.0119 20.8009C23.9399 20.6785 23.7419 20.6065 23.4467 20.4553Z" fill="#F26522"/>
</g>
</svg>
