<svg width="36" height="36" viewBox="0 0 36 36" fill="none" xmlns="http://www.w3.org/2000/svg">
<g clip-path="url(#clip0_262_10)">
<circle cx="18.0002" cy="18" r="17.28" fill="#F26522"/>
<mask id="mask0_262_10" style="mask-type:luminance" maskUnits="userSpaceOnUse" x="0" y="0" width="36" height="36">
<path d="M36 0H0V36H36V0Z" fill="white"/>
</mask>
<g mask="url(#mask0_262_10)">
<path fill-rule="evenodd" clip-rule="evenodd" d="M20.0812 12.5898C20.7822 12.7392 21.3193 13.0056 21.7783 13.4353C22.369 13.9931 22.6927 14.6681 22.8349 15.6378C22.9311 16.2701 22.8918 16.5187 22.6676 16.7248C22.4578 16.9166 22.0699 16.9237 21.8352 16.7425C21.6644 16.6146 21.6109 16.4796 21.5718 16.1137C21.5258 15.6268 21.4402 15.286 21.2943 14.9698C20.9812 14.2985 20.4297 13.9503 19.4977 13.8367C19.0601 13.7832 18.9284 13.7337 18.7861 13.5667C18.5262 13.2576 18.626 12.7567 18.9852 12.5718C19.1205 12.5044 19.1773 12.4973 19.4763 12.515C19.6616 12.5258 19.9356 12.5578 20.0812 12.5898ZM19.3236 9.90756C21.4833 10.2237 23.1553 11.2255 24.2513 12.8526C24.867 13.7691 25.2512 14.8455 25.3828 16.0001C25.429 16.4228 25.429 17.1937 25.3791 17.3216C25.3328 17.4423 25.1834 17.6057 25.0554 17.6732C24.9168 17.7443 24.6215 17.7371 24.4578 17.6518C24.1839 17.5131 24.102 17.293 24.102 16.6962C24.102 15.7761 23.8635 14.8062 23.4509 14.053C22.9813 13.1931 22.298 12.4827 21.4656 11.9889C20.7503 11.5625 19.6937 11.2463 18.7296 11.1681C18.3808 11.1398 18.1887 11.0686 18.0571 10.9158C17.8543 10.6849 17.833 10.3722 18.0037 10.1129C18.1884 9.82606 18.473 9.77962 19.3236 9.90756ZM10.9446 7.71581C11.0691 7.75858 11.2612 7.85786 11.3715 7.929C12.0473 8.37677 13.9295 10.7817 14.5452 11.9824C14.8972 12.668 15.0148 13.176 14.9046 13.5526C14.7907 13.9576 14.6022 14.1708 13.7588 14.8491C13.4207 15.1225 13.104 15.4032 13.0542 15.4781C12.9262 15.6628 12.8231 16.025 12.8231 16.281C12.8267 16.8741 13.2108 17.9508 13.716 18.7785C14.1072 19.4214 14.8081 20.2455 15.502 20.8781C16.3167 21.6242 17.0353 22.1322 17.8467 22.5335C18.8893 23.0521 19.526 23.1834 19.9921 22.9668C20.1094 22.9134 20.2339 22.8426 20.273 22.8105C20.3085 22.7784 20.5827 22.4446 20.8814 22.0751C21.4577 21.3502 21.5893 21.2329 21.9845 21.0979C22.4862 20.9275 22.9984 20.9737 23.5145 21.2366C23.9059 21.4392 24.7599 21.9684 25.3111 22.352C26.037 22.86 27.5881 24.1248 27.7982 24.377C28.1681 24.8319 28.2321 25.4143 27.9832 26.0575C27.72 26.7359 26.6954 28.0077 25.9802 28.5514C25.3328 29.0416 24.8738 29.2298 24.2688 29.2581C23.7707 29.2829 23.5642 29.2404 22.9275 28.9775C17.9325 26.9207 13.9441 23.8514 10.7775 19.6343C9.12319 17.4318 7.86348 15.1476 7.00256 12.7781C6.50082 11.3962 6.47606 10.7958 6.88866 10.0887C7.06669 9.79034 7.82438 9.05148 8.3759 8.63942C9.2939 7.95744 9.71719 7.70515 10.0552 7.63394C10.2864 7.58419 10.6886 7.62329 10.9446 7.71581ZM19.0781 7.33219C20.3021 7.4849 21.2909 7.77967 22.3762 8.30923C23.4436 8.83152 24.1268 9.32544 25.0304 10.224C25.8772 11.0731 26.347 11.7161 26.8451 12.7142C27.5389 14.1067 27.9338 15.7624 28.0012 17.5846C28.0263 18.2061 28.0083 18.3448 27.8659 18.5226C27.5957 18.8671 27.0014 18.8103 26.7986 18.423C26.7345 18.2951 26.7168 18.185 26.6954 17.6875C26.6597 16.9237 26.6065 16.43 26.4997 15.8403C26.0798 13.5276 24.9697 11.6803 23.1978 10.355C21.7212 9.24667 20.1948 8.70667 18.1955 8.58938C17.5193 8.55029 17.402 8.52552 17.249 8.40823C16.9644 8.18438 16.9501 7.65871 17.2241 7.41348C17.3914 7.26077 17.5087 7.23938 18.0886 7.2571C18.3915 7.26804 18.8361 7.30375 19.0781 7.33219ZM18 0C27.941 0 36 8.05896 36 18C36 27.941 27.941 36 18 36C8.05896 36 0 27.941 0 18C0 8.05896 8.05896 0 18 0Z" fill="white"/>
</g>
</g>
<defs>
<clipPath id="clip0_262_10">
<rect width="36" height="36" fill="white"/>
</clipPath>
</defs>
</svg>
