<svg width="36" height="36" viewBox="0 0 36 36" fill="none" xmlns="http://www.w3.org/2000/svg">
<circle cx="18" cy="18" r="18" fill="white"/>
<path d="M18 29C18 29 26 21.5371 26 15.875C26 13.7864 25.1571 11.7834 23.6569 10.3065C22.1566 8.82969 20.1217 8 18 8C15.8783 8 13.8434 8.82969 12.3431 10.3065C10.8429 11.7834 10 13.7864 10 15.875C10 21.5371 18 29 18 29ZM18 19.8125C16.9391 19.8125 15.9217 19.3977 15.1716 18.6592C14.4214 17.9208 14 16.9193 14 15.875C14 14.8307 14.4214 13.8292 15.1716 13.0908C15.9217 12.3523 16.9391 11.9375 18 11.9375C19.0609 11.9375 20.0783 12.3523 20.8284 13.0908C21.5786 13.8292 22 14.8307 22 15.875C22 16.9193 21.5786 17.9208 20.8284 18.6592C20.0783 19.3977 19.0609 19.8125 18 19.8125Z" fill="#F26522"/>
</svg>
