<svg width="36" height="36" viewBox="0 0 36 36" fill="none" xmlns="http://www.w3.org/2000/svg">
<circle cx="18" cy="18" r="18" fill="white"/>
<path d="M28.1541 9.71058L24.4947 28.1676C24.4947 28.1676 23.9822 29.4488 22.5729 28.8322L14.1251 22.3542L11.0502 20.8728L5.87746 19.1353C5.87746 19.1353 5.08474 18.855 5.00467 18.2385C4.9246 17.6219 5.90149 17.2935 5.90149 17.2935L26.4645 9.23008C26.4645 9.22213 28.1541 8.47744 28.1541 9.71058Z" fill="#F26522"/>
<path d="M13.4685 27.9594C13.4685 27.9594 13.2203 27.9354 12.916 26.9665C12.6117 25.9976 11.0503 20.8729 11.0503 20.8729L23.4698 12.9856C23.4698 12.9856 24.1904 12.5533 24.1584 12.9856C24.1584 12.9856 24.2865 13.0657 23.9021 13.4181C23.5178 13.7784 14.1492 22.2021 14.1492 22.2021" fill="white"/>
<path d="M17.3601 24.8364L14.021 27.8873C14.021 27.8873 13.7568 28.0875 13.4766 27.9593L14.1171 22.2981" fill="#F26522"/>
</svg>
